<svg class="animated" id="freepik_stories-fast-car" xmlns="http://www.w3.org/2000/svg" viewBox="0 0 750 500" version="1.1" xmlns:xlink="http://www.w3.org/1999/xlink" xmlns:svgjs="http://svgjs.com/svgjs"><style>svg#freepik_stories-fast-car:not(.animated) .animable {opacity: 0;}svg#freepik_stories-fast-car.animated #freepik--Car--inject-51 {animation: 3s Infinite  linear shake;animation-delay: 0s;}            @keyframes shake {                10%, 90% {                    transform: translate3d(-1px, 0, 0);                  }                  20%, 80% {                    transform: translate3d(2px, 0, 0);                  }                  30%, 50%, 70% {                    transform: translate3d(-4px, 0, 0);                  }                  40%, 60% {                    transform: translate3d(4px, 0, 0);                  }            }        </style><g id="freepik--Floor--inject-51" class="animable" style="transform-origin: 375px 427.87px;"><path d="M705.37,427.87c0,.14-147.92.26-330.35.26S44.63,428,44.63,427.87s147.89-.26,330.39-.26S705.37,427.72,705.37,427.87Z" style="fill: rgb(38, 50, 56); transform-origin: 375px 427.87px;" id="elmbmn4x9q9g" class="animable"></path></g><g id="freepik--Car--inject-51" class="animable" style="transform-origin: 377.139px 344.971px;"><path d="M525.05,427.87c19.5-1.28,58.8-6.47,81.44-9.53,10.19-1.37,21.48-3.62,31.15-7.1s18.69-10.16,22.57-19.68c2.6-6.39,2.44-14.4-2.24-19.46-5.61-6.07-15.24-5.83-23.3-4a22.5,22.5,0,0,1,36.67,7.59,21.58,21.58,0,0,1,30.37,25.71,18.82,18.82,0,0,1,18.52,3.5c4.95,4.37,6.5,16.51,5,22.94Z" style="fill: rgb(235, 235, 235); transform-origin: 625.414px 394.742px;" id="elnjsbdi7k34j" class="animable"></path><path d="M589.2,413.26c9.17-1.65,18.45-3.34,26.95-7.17a11.49,11.49,0,0,0,4.7-3.3c1.15-1.56,1.45-3.9.2-5.38-1.07-1.27-2.91-1.56-4.56-1.45a18.5,18.5,0,0,0-9.18,3.66c-2.73,1.92-5.14,4.25-7.71,6.39a66,66,0,0,1-11,7.39" style="fill: rgb(235, 235, 235); transform-origin: 605.23px 404.669px;" id="elf4kwoyt805p" class="animable"></path><path d="M433.94,271.06a.8.8,0,0,1-.27,0h-.78l-3-.09-11.11-.44-16.48-.71-9.73-.43c-1.69-.13-3.4,0-5.15,0h-5.3c-14.35,0-27.32-.64-36.7-1.05l-11.11-.53-3-.17-.79-.06a.72.72,0,0,1-.27,0h1.06l3,.07,11.12.37c9.39.32,22.36.85,36.69.9h5.3c1.75,0,3.47-.09,5.16,0l9.73.46,16.48.82,11.11.6,3,.19.79.06Z" style="fill: rgb(38, 50, 56); transform-origin: 382.095px 269.326px;" id="elee13cpknd7k" class="animable"></path><path d="M117.12,321.44h477.2a0,0,0,0,1,0,0v69.71a0,0,0,0,1,0,0H73.06a0,0,0,0,1,0,0V365.49A44.06,44.06,0,0,1,117.12,321.44Z" style="fill: rgb(0, 255, 136); transform-origin: 333.69px 356.295px;" id="el1wjwelw05w2" class="animable"></path><g id="elnrnihg8cly"><g style="opacity: 0.4; transform-origin: 333.69px 356.295px;" class="animable"><path d="M117.12,321.44h477.2a0,0,0,0,1,0,0v69.71a0,0,0,0,1,0,0H73.06a0,0,0,0,1,0,0V365.49A44.06,44.06,0,0,1,117.12,321.44Z" id="el3xhmkhg3x2y" class="animable" style="transform-origin: 333.69px 356.295px;"></path></g></g><path d="M28.51,388.75S47,409,81,404.88c0,0-13.6-75.47,57.66-79.62,0,0,32.66-2.85,49.48,24a51.61,51.61,0,0,1,7.65,26.14c.28,10.6.61,28.5-.24,33,0,0,235.48-9.79,276.7-5.1,0,0-18.76-58.39,32.93-77.12,8.82-3.2,19-3.55,28.29-2.24,12.67,1.78,26.25,7.58,35,21,3.77,5.77,8.43,14.14,9.75,20.9,2.25,11.59.72,22.51,0,28.19l19.49-1.89,14.06-46.59-2-27.75L595.3,290.44,561,294.52s-63.46-18-100.8-25.51-96.32-9-110.6-6.53-19.72,5.11-26.8,8.17-72.37,34.28-72.37,34.28l-99.78.81s-68.16-1.42-111.21,49.79l5.71,23.06Z" style="fill: rgb(0, 255, 136); transform-origin: 320.14px 334.89px;" id="el54v957dt5" class="animable"></path><path d="M250.45,304.93s61.49,2.62,77.67,2,103.72-10.89,103.72-10.89l1.26-25.14S404.06,269,385,269c-15.86,0-54.81-1.48-54.81-1.48-1.24.52-2.6,1.06-3.87,1.6C303.7,278.77,278.28,291.49,250.45,304.93Z" style="fill: rgb(69, 90, 100); transform-origin: 341.775px 287.272px;" id="elk1yb8kxl5ms" class="animable"></path><path d="M54,340.84s9.11,1.46,20.5-3.65,43.8-22.58,43.8-22.58l-2.14-4.44s-5.81,1.17-12.5,3.29a147.61,147.61,0,0,0-21.08,8.67A165.42,165.42,0,0,0,67.06,331,141.06,141.06,0,0,0,54,340.84Z" style="fill: rgb(235, 235, 235); transform-origin: 86.15px 325.602px;" id="el2ogrcmx0y5g" class="animable"></path><path d="M71.6,355.38c0,.14-6.34.44-14.18.67s-14.2.3-14.21.15,6.35-.44,14.19-.67S71.6,355.24,71.6,355.38Z" style="fill: rgb(38, 50, 56); transform-origin: 57.405px 355.792px;" id="elpgijq7kgrvn" class="animable"></path><g id="eldmgtvvtoxe"><g style="opacity: 0.4; transform-origin: 48px 384.728px;" class="animable"><path d="M45.17,378.59,67.5,389s-21.9,4.34-39-.22Z" style="fill: rgb(255, 255, 255); transform-origin: 48px 384.728px;" id="elgu869kw92wt" class="animable"></path></g></g><path d="M83.57,350s-7.18,10.52-8.21,18.9-1.19,18.89-1.19,18.89h3.25S74.72,362.22,88.19,350Z" style="fill: rgb(235, 235, 235); transform-origin: 81.18px 368.895px;" id="el6y0d9yx50l7" class="animable"></path><g id="elgzj0xqgduq6"><g style="opacity: 0.3; transform-origin: 222.5px 325.385px;" class="animable"><polygon points="197.24 330.26 189.44 322.85 255.56 320.51 209.72 326.36 197.24 330.26" id="elkiplric0m1" class="animable" style="transform-origin: 222.5px 325.385px;"></polygon></g></g><path d="M202.31,389.43a1.11,1.11,0,0,1,0-.29c0-.23,0-.51-.05-.86,0-.75-.06-1.86-.16-3.28a118.4,118.4,0,0,0-1.24-12A73,73,0,0,0,196,355.8a56.51,56.51,0,0,0-12.22-18,58.56,58.56,0,0,0-18-12.15l-1.14-.51-1.16-.43-2.27-.86c-1.53-.45-3-1-4.44-1.33s-2.85-.73-4.23-.95l-2-.38-1.94-.26a65.64,65.64,0,0,0-12-.41c-1.43.06-2.52.22-3.27.27l-.86.07h-.29a1,1,0,0,1,.29-.06l.84-.12c.75-.08,1.85-.28,3.27-.37a61.5,61.5,0,0,1,12.11.26l2,.24,2,.36c1.38.22,2.79.57,4.26.93s2.94.87,4.48,1.32l2.29.85,1.17.43,1.15.51a58.64,58.64,0,0,1,18.22,12.22,56.44,56.44,0,0,1,12.29,18.16,71.63,71.63,0,0,1,4.73,17.31A104,104,0,0,1,202.27,385c.07,1.43,0,2.54.06,3.29v.86A.94.94,0,0,1,202.31,389.43Z" style="fill: rgb(38, 50, 56); transform-origin: 167.256px 354.778px;" id="elu9eiuz49e5" class="animable"></path><g id="el8y5cl6wlidw"><g style="opacity: 0.4; transform-origin: 330.205px 377.405px;" class="animable"><polygon points="213.42 385.86 252.97 368.95 446.99 372.68 213.42 385.86" style="fill: rgb(255, 255, 255); transform-origin: 330.205px 377.405px;" id="el829m97bn2ky" class="animable"></polygon></g></g><polygon points="250.6 369.97 195.96 329.05 209.72 326.36 266.19 369.2 250.6 369.97" style="fill: rgb(38, 50, 56); transform-origin: 231.075px 348.165px;" id="el16ye00c203p" class="animable"></polygon><path d="M268,405.67a1.42,1.42,0,0,1-.11-.38c-.08-.29-.17-.66-.29-1.13-.25-1-.59-2.5-1-4.35-.88-3.8-2.12-9.18-3.62-15.7v-.05l0-.06c1.36-4.52,2.91-9.62,4.58-15.12V369c-.65-4.6-1.34-9.56-2.06-14.7-1-7.23-1.9-14.11-2.45-20.42l-.09-1.18a7.92,7.92,0,0,1,0-1.2,12.78,12.78,0,0,1,.49-2.26,29.75,29.75,0,0,1,1.62-4.07,73.06,73.06,0,0,1,3.82-6.84c2.55-4.06,4.83-7.18,6.43-9.33.8-1.07,1.44-1.89,1.88-2.43.2-.26.37-.46.5-.62s.18-.21.19-.2a1.12,1.12,0,0,1-.14.23l-.47.65-1.8,2.49c-1.55,2.18-3.78,5.34-6.27,9.4a74.64,74.64,0,0,0-3.75,6.83,30.52,30.52,0,0,0-1.57,4,10,10,0,0,0-.41,4.47c.57,6.28,1.52,13.16,2.48,20.39.72,5.14,1.4,10.1,2,14.7V369l0,0-4.65,15.11V384c1.43,6.53,2.61,11.93,3.44,15.74l.92,4.37c.1.47.17.85.23,1.15A1.46,1.46,0,0,1,268,405.67Z" style="fill: rgb(38, 50, 56); transform-origin: 270.414px 355.709px;" id="elqlnw5j2c9of" class="animable"></path><path d="M269.47,305.68l76.38-37.35,19.8.68S316.3,280.77,307,306.84Z" style="fill: rgb(38, 50, 56); transform-origin: 317.56px 287.585px;" id="elzhyxpavy5oh" class="animable"></path><path d="M493.67,282.92l-7.52,8.39-54.31,4.76,1.26-25.14S485.27,278.79,493.67,282.92Z" style="fill: rgb(38, 50, 56); transform-origin: 462.755px 283.5px;" id="elsaatsacyp2" class="animable"></path><path d="M269.41,394l.66-.06,1.95-.12,7.5-.4,27.59-1.36,91-4.32,13.15-.63a29.74,29.74,0,0,0,12.06-3.61c7.34-4,13-10.05,17.62-16.16a87.32,87.32,0,0,0,10.92-18.84,59.34,59.34,0,0,0,4.5-18.39,50.3,50.3,0,0,0-.11-8.27,51.61,51.61,0,0,0-1.3-7.27,42.76,42.76,0,0,0-4.54-10.9,39.35,39.35,0,0,0-4.46-6c-.58-.63-1.05-1.08-1.36-1.4l-.45-.49s.17.14.49.45.8.75,1.4,1.36a38.16,38.16,0,0,1,4.55,6,43.23,43.23,0,0,1,4.65,10.93,52.29,52.29,0,0,1,1.35,7.31,49.92,49.92,0,0,1,.15,8.34,59.43,59.43,0,0,1-4.47,18.52,87.1,87.1,0,0,1-10.93,19C436.73,373.79,431,379.86,423.6,384a30.32,30.32,0,0,1-12.27,3.68l-13.18.63-91,4.16-27.59,1.21-7.51.3-1.95.06Z" style="fill: rgb(69, 90, 100); transform-origin: 363.124px 344.91px;" id="el650aoexzxal" class="animable"></path><path d="M490.62,314.08a14.41,14.41,0,0,0-.53-2.68,10.38,10.38,0,0,0-4.65-5.56,13.58,13.58,0,0,0-10.58-1.27,12.05,12.05,0,0,0-5.44,3.3,8.87,8.87,0,0,0,0,12.43,11.89,11.89,0,0,0,5.44,3.29,13.49,13.49,0,0,0,10.58-1.27,10.31,10.31,0,0,0,4.65-5.56,14.41,14.41,0,0,0,.53-2.68,3.61,3.61,0,0,1,0,.72,4.25,4.25,0,0,1-.09.86,5.24,5.24,0,0,1-.26,1.16,10.39,10.39,0,0,1-4.65,5.82,13.84,13.84,0,0,1-10.9,1.41,12.35,12.35,0,0,1-5.69-3.41,9.37,9.37,0,0,1,0-13.12,12.44,12.44,0,0,1,5.69-3.41,13.8,13.8,0,0,1,10.9,1.42,10.34,10.34,0,0,1,4.65,5.81,5.36,5.36,0,0,1,.26,1.16,4.27,4.27,0,0,1,.09.87A3.47,3.47,0,0,1,490.62,314.08Z" style="fill: rgb(38, 50, 56); transform-origin: 478.494px 314.08px;" id="elca6w3t6u6er" class="animable"></path><path d="M562,294.41l-.26,0-.78,0-3,.06-11,.21c-9.3.18-22.15.46-36.33,1s-27,1.17-36.3,1.86c-4.63.37-8.39.65-11,.93l-3,.28-.78.06a.92.92,0,0,1-.27,0,.82.82,0,0,1,.26,0l.77-.11,3-.38c2.58-.34,6.33-.68,11-1.1,9.28-.79,22.12-1.51,36.31-2s27-.73,36.34-.82c4.65,0,8.42-.05,11,0l3,0,.78,0A.9.9,0,0,1,562,294.41Z" style="fill: rgb(38, 50, 56); transform-origin: 510.64px 296.599px;" id="elelm94rcktkm" class="animable"></path><polygon points="566.67 293.85 599.57 298.5 595.3 290.44 566.67 293.85" style="fill: rgb(235, 235, 235); transform-origin: 583.12px 294.47px;" id="el275p5nu1c5j" class="animable"></polygon><path d="M592.28,297a2.72,2.72,0,0,1-.18.5l-.6,1.39c-.53,1.21-1.35,2.94-2.4,5a173.07,173.07,0,0,1-9.1,16,174.85,174.85,0,0,1-10.75,14.95c-1.48,1.84-2.7,3.3-3.58,4.28l-1,1.13a2.14,2.14,0,0,1-.38.37s.09-.16.3-.44l.93-1.19c.83-1,2-2.52,3.45-4.38,2.89-3.71,6.73-9,10.6-15s7-11.73,9.22-15.9c1.09-2.08,2-3.78,2.53-5l.69-1.35A1.93,1.93,0,0,1,592.28,297Z" style="fill: rgb(38, 50, 56); transform-origin: 578.285px 318.81px;" id="elwpf1ysauxv9" class="animable"></path><path d="M585.78,386.36a1.14,1.14,0,0,1,0-.32v-1c0-.83,0-2,0-3.62a65.34,65.34,0,0,0-2-13.15,94.54,94.54,0,0,0-6.95-18.44,90.43,90.43,0,0,0-5.68-10.17,37.48,37.48,0,0,0-8.3-9.22,40.16,40.16,0,0,0-11-5.79,75.72,75.72,0,0,0-11.24-3A80.86,80.86,0,0,0,521,320.43a82,82,0,0,0-13.18,1.83l-2,.47-1.48.38-.92.23a1.21,1.21,0,0,1-.31.06,1.58,1.58,0,0,1,.3-.11l.9-.28,1.47-.43,2-.52a77,77,0,0,1,13.21-2,79.29,79.29,0,0,1,19.76,1.16,75.8,75.8,0,0,1,11.33,3,40.51,40.51,0,0,1,11.13,5.86,38.26,38.26,0,0,1,8.41,9.35,92.29,92.29,0,0,1,5.69,10.23,93.65,93.65,0,0,1,6.87,18.57,63.38,63.38,0,0,1,1.8,13.23c0,1.58,0,2.81-.07,3.64,0,.39,0,.7-.06.94A1.34,1.34,0,0,1,585.78,386.36Z" style="fill: rgb(38, 50, 56); transform-origin: 544.545px 353.122px;" id="el88gzj8tbmxr" class="animable"></path><path d="M611.86,340.46a8.32,8.32,0,0,1-1.33.45c-.85.27-2.11.61-3.67,1A111.77,111.77,0,0,1,582,345.06c-1.61,0-2.91,0-3.81,0a8.16,8.16,0,0,1-1.39-.11,6.47,6.47,0,0,1,1.39-.09l3.8-.13c3.2-.12,7.62-.41,12.47-1s9.2-1.45,12.33-2.12l3.7-.83A7.82,7.82,0,0,1,611.86,340.46Z" style="fill: rgb(38, 50, 56); transform-origin: 594.33px 342.76px;" id="el44yc3b9g3mu" class="animable"></path><path d="M234.75,341.62s.22,0,.64-.08l1.87-.17,7.21-.59L271,338.7c22.38-1.71,53.31-4,87.51-6.12,17.1-1.05,33.4-1.93,48.23-2.62s28.22-1,39.44-.28a160.51,160.51,0,0,1,26.34,3.53c3.06.75,5.42,1.34,7,1.84l1.8.54.61.2s-.22,0-.63-.15l-1.81-.48c-1.59-.47-4-1-7-1.75A166.09,166.09,0,0,0,446.14,330c-11.2-.64-24.58-.34-39.4.4s-31.12,1.61-48.22,2.66c-34.19,2.09-65.12,4.35-87.51,6L244.48,341l-7.21.5-1.87.12Z" style="fill: rgb(38, 50, 56); transform-origin: 358.34px 335.444px;" id="elgbk4bexd0n9" class="animable"></path><g id="elcf9eeuwv5n"><circle cx="524.14" cy="378.6" r="49.27" style="fill: rgb(38, 50, 56); transform-origin: 524.14px 378.6px; transform: rotate(-0.81deg);" class="animable"></circle></g><path d="M474.88,377.76s0,.08,0,.12a49.27,49.27,0,0,0,98.53,1.43v-.13Z" style="fill: rgb(38, 50, 56); transform-origin: 524.143px 402.801px;" id="elwps6yaziu1l" class="animable"></path><path d="M489.55,378.1A34.59,34.59,0,1,0,524.64,344,34.58,34.58,0,0,0,489.55,378.1Z" style="fill: rgb(250, 250, 250); transform-origin: 524.137px 378.586px;" id="elqt7vp609gwc" class="animable"></path><path d="M524.64,344a34.58,34.58,0,0,0-35.09,34.09l69.18,1A34.59,34.59,0,0,0,524.64,344Z" style="fill: rgb(224, 224, 224); transform-origin: 524.142px 361.543px;" id="elzocblj5g82" class="animable"></path><path d="M503.07,378.29a21.07,21.07,0,1,0,21.37-20.76A21.06,21.06,0,0,0,503.07,378.29Z" style="fill: rgb(38, 50, 56); transform-origin: 524.138px 378.598px;" id="el9qr28h0c6a" class="animable"></path><g id="elykdot0xhogb"><circle cx="138.81" cy="378.6" r="49.27" style="fill: rgb(38, 50, 56); transform-origin: 138.81px 378.6px; transform: rotate(-0.38deg);" class="animable"></circle></g><path d="M89.55,377.76v.12a49.27,49.27,0,0,0,98.53,1.43c0-.05,0-.09,0-.13Z" style="fill: rgb(38, 50, 56); transform-origin: 138.812px 402.813px;" id="el8bwm38va3zo" class="animable"></path><path d="M104.22,378.1A34.59,34.59,0,1,0,139.31,344,34.59,34.59,0,0,0,104.22,378.1Z" style="fill: rgb(250, 250, 250); transform-origin: 138.807px 378.586px;" id="eloqmkj3mlp6r" class="animable"></path><path d="M139.31,344a34.59,34.59,0,0,0-35.09,34.09l69.18,1A34.58,34.58,0,0,0,139.31,344Z" style="fill: rgb(224, 224, 224); transform-origin: 138.812px 361.543px;" id="elwi67yr6ppdt" class="animable"></path><path d="M117.74,378.29a21.07,21.07,0,1,0,21.38-20.76A21.07,21.07,0,0,0,117.74,378.29Z" style="fill: rgb(38, 50, 56); transform-origin: 138.808px 378.598px;" id="el8wbi436442v" class="animable"></path><path d="M462.75,293.36a12.52,12.52,0,0,0-2.12.09c-1.4.1-3.46.28-6.11.53-5.3.51-13,1.28-22.44,2.28l-33.26,3.6-19.63,2.24-10.37,1.27c-3.5.48-7.07,1-10.68,1.32-7.24.75-14.32,1.3-21.15,1.79l-10.07.66-2.46.14h-7.22c-12.6,0-23.94-.25-33.46-.65s-17.21-.88-22.53-1.24l-6.12-.44-1.59-.13-.54-.06s.19,0,.55,0l1.59.08,6.12.34c5.32.3,13,.73,22.53,1.07s20.85.55,33.45.54h7.2l2.45-.14L337,306c6.83-.49,13.91-1.05,21.13-1.8,3.62-.36,7.16-.83,10.67-1.32s7-.86,10.38-1.26l19.64-2.2c12.51-1.37,23.79-2.55,33.27-3.5s17.15-1.67,22.46-2.11S462.77,293.19,462.75,293.36Z" style="fill: rgb(38, 50, 56); transform-origin: 357.875px 300.288px;" id="elxriv746ogu" class="animable"></path><path d="M304.24,312.41s8.19-15.84,14-18.57c0,0,15.47-1.64,17.83-1.09s3.1,4.19,3.1,6.55.36,6.56-1.46,8-.36,1.28-3.82,2.19S323,309,323,309l.18,6.73s-8.19,4.19-13.47,2.92A6.89,6.89,0,0,1,304.24,312.41Z" style="fill: rgb(0, 255, 136); transform-origin: 321.719px 305.763px;" id="elnt5peuslrtd" class="animable"></path><path d="M323.25,315.69a1.88,1.88,0,0,1-.06-.45c0-.34,0-.78-.07-1.32-.05-1.2-.12-2.87-.2-5v-.18l.18,0a53.84,53.84,0,0,0,6.18.74,20.88,20.88,0,0,0,3.69-.08,11.74,11.74,0,0,0,1.92-.44c.63-.22,1.36-.32,1.71-.84a5.8,5.8,0,0,1,.77-.8,3.6,3.6,0,0,0,.73-.73,4.83,4.83,0,0,0,.75-2,24.92,24.92,0,0,0,.18-4.61,12.5,12.5,0,0,0-.7-4.73,4.29,4.29,0,0,0-1.35-1.93,3.72,3.72,0,0,0-2.31-.5c-2.9,0-5.75.25-8.48.46s-5.35.46-7.82.71l.07,0a14.1,14.1,0,0,0-3.78,3.09,39.39,39.39,0,0,0-2.85,3.49c-1.7,2.28-3,4.39-4.13,6.15s-1.91,3.17-2.47,4.14l-.64,1.11a2,2,0,0,1-.24.37,1.88,1.88,0,0,1,.17-.41l.58-1.14c.51-1,1.3-2.43,2.35-4.22s2.38-3.92,4.06-6.24a41,41,0,0,1,2.85-3.55,14.32,14.32,0,0,1,3.9-3.22h.08c2.47-.26,5.09-.52,7.82-.75s5.59-.46,8.54-.47a10.09,10.09,0,0,1,1.33.08,2.76,2.76,0,0,1,1.28.52,4.71,4.71,0,0,1,1.52,2.16,12.94,12.94,0,0,1,.72,4.91,23.74,23.74,0,0,1-.21,4.71,5.26,5.26,0,0,1-.84,2.17,4.08,4.08,0,0,1-.81.8,5.53,5.53,0,0,0-.71.74c-2.55,1.73-5.36,1.56-7.7,1.45a50.28,50.28,0,0,1-6.21-.83l.17-.15c0,2.09.05,3.76.07,5,0,.54,0,1,0,1.31A2.35,2.35,0,0,1,323.25,315.69Z" style="fill: rgb(38, 50, 56); transform-origin: 321.948px 304.015px;" id="elnvkb8jksnlg" class="animable"></path><path d="M218,334.67a33.18,33.18,0,0,1-6,.27,33.27,33.27,0,0,1-6-.27,35.07,35.07,0,0,1,6-.26A35,35,0,0,1,218,334.67Z" style="fill: rgb(69, 90, 100); transform-origin: 212px 334.676px;" id="elbhu26eellie" class="animable"></path><path d="M226.6,341a33.89,33.89,0,0,1-6,.26,34,34,0,0,1-6-.26,35.15,35.15,0,0,1,6-.26A35.07,35.07,0,0,1,226.6,341Z" style="fill: rgb(69, 90, 100); transform-origin: 220.6px 341.002px;" id="elmysm7y6tmjf" class="animable"></path><path d="M235.15,347.23a35.07,35.07,0,0,1-6,.26,35,35,0,0,1-6-.26,35,35,0,0,1,6-.26A35.07,35.07,0,0,1,235.15,347.23Z" style="fill: rgb(69, 90, 100); transform-origin: 229.15px 347.23px;" id="elmi3f7c1nbka" class="animable"></path><path d="M243.7,353.51a35.07,35.07,0,0,1-6,.26,35.07,35.07,0,0,1-6-.26,33.89,33.89,0,0,1,6-.26A33.89,33.89,0,0,1,243.7,353.51Z" style="fill: rgb(69, 90, 100); transform-origin: 237.7px 353.508px;" id="el2cgvopavit9" class="animable"></path><path d="M252.25,359.79a35,35,0,0,1-6,.26,35.07,35.07,0,0,1-6-.26,33.27,33.27,0,0,1,6-.27A33.18,33.18,0,0,1,252.25,359.79Z" style="fill: rgb(69, 90, 100); transform-origin: 246.25px 359.784px;" id="el5vga7emjp2d" class="animable"></path><path d="M260.81,366.06a33.89,33.89,0,0,1-6,.26,33.79,33.79,0,0,1-6-.26,35,35,0,0,1,6-.26A35.07,35.07,0,0,1,260.81,366.06Z" style="fill: rgb(69, 90, 100); transform-origin: 254.81px 366.062px;" id="eln18eu2g6y3j" class="animable"></path><path d="M334,294.94a53.12,53.12,0,0,1-7.37.26,53.21,53.21,0,0,1-7.38-.26,51.41,51.41,0,0,1,7.38-.26A51.32,51.32,0,0,1,334,294.94Z" style="fill: rgb(255, 255, 255); transform-origin: 326.625px 294.938px;" id="elh1eyu50dum8" class="animable"></path><path d="M159.14,320.44a8,8,0,0,1-1.5-.29c-.95-.22-2.34-.51-4.07-.82s-3.8-.58-6.1-.79a67.56,67.56,0,0,0-15,.4c-2.29.32-4.34.71-6.05,1.11s-3.08.76-4,1a9.14,9.14,0,0,1-1.48.37,7.55,7.55,0,0,1,1.42-.56c.92-.34,2.29-.76,4-1.21a60.81,60.81,0,0,1,6.07-1.23,61.23,61.23,0,0,1,15.14-.4c2.32.24,4.4.55,6.13.91s3.11.7,4.05,1A9.25,9.25,0,0,1,159.14,320.44Z" style="fill: rgb(255, 255, 255); transform-origin: 140.04px 319.574px;" id="elnlb5cvs4u4" class="animable"></path><path d="M447,372.68c0,.14-52.18,3.14-116.55,6.7s-116.58,6.33-116.59,6.18,52.17-3.14,116.56-6.7S447,372.53,447,372.68Z" style="fill: rgb(255, 255, 255); transform-origin: 330.43px 379.12px;" id="elvwnoo7zaloo" class="animable"></path><path d="M547.34,320a9.51,9.51,0,0,1-1.67-.44c-.53-.16-1.18-.35-1.94-.54s-1.62-.44-2.59-.64c-1.92-.46-4.24-.88-6.83-1.23a75.45,75.45,0,0,0-8.47-.57,76.75,76.75,0,0,0-8.47.46c-2.6.32-4.92.71-6.85,1.14-1,.19-1.83.43-2.59.61s-1.42.36-1.95.52a11.83,11.83,0,0,1-1.68.42,10.42,10.42,0,0,1,1.62-.61c.52-.19,1.17-.4,1.93-.61s1.62-.48,2.59-.69a62.39,62.39,0,0,1,6.87-1.25,70.59,70.59,0,0,1,8.54-.52,71.68,71.68,0,0,1,8.53.63,63.14,63.14,0,0,1,6.85,1.34c1,.22,1.82.5,2.58.72s1.4.44,1.92.63A12.67,12.67,0,0,1,547.34,320Z" style="fill: rgb(255, 255, 255); transform-origin: 525.82px 318.025px;" id="elchf7cuc5e3" class="animable"></path><path d="M474.81,303.07c0,.08-.74.19-1.88.56a13.28,13.28,0,0,0-7.17,5.67,19.35,19.35,0,0,1-1,1.7,4.79,4.79,0,0,1,.67-1.88,11.66,11.66,0,0,1,7.39-5.84A4.75,4.75,0,0,1,474.81,303.07Z" style="fill: rgb(255, 255, 255); transform-origin: 469.785px 307.021px;" id="el04zgtzl9k8rl" class="animable"></path><path d="M515.66,293.53a16.85,16.85,0,0,1-3.06.55c-1.91.25-4.56.51-7.49.64s-5.59.1-7.51,0a15.54,15.54,0,0,1-3.1-.28,22,22,0,0,1,3.11-.09c1.91,0,4.56,0,7.48-.17s5.56-.33,7.47-.49A19.58,19.58,0,0,1,515.66,293.53Z" style="fill: rgb(255, 255, 255); transform-origin: 505.08px 294.165px;" id="elz179gkhzybo" class="animable"></path><path d="M405.9,302.3c0,.14-9.82,1.68-22,3.44s-22,3.07-22.07,2.93,9.83-1.69,22-3.44S405.88,302.16,405.9,302.3Z" style="fill: rgb(255, 255, 255); transform-origin: 383.865px 305.485px;" id="elc1f8vr4i8bk" class="animable"></path><path d="M395.87,280.46c.06.13-4.63,2.29-10.47,4.82s-10.62,4.47-10.68,4.34,4.63-2.29,10.47-4.82S395.81,280.33,395.87,280.46Z" style="fill: rgb(255, 255, 255); transform-origin: 385.295px 285.04px;" id="elewl1htdbip9" class="animable"></path><path d="M390.29,277.71a8.33,8.33,0,0,1-1.34.8c-.88.48-2.16,1.16-3.76,2-3.19,1.62-7.66,3.77-12.67,6s-9.61,4-13,5.27c-1.68.63-3.05,1.11-4,1.43a9.81,9.81,0,0,1-1.49.45,7.72,7.72,0,0,1,1.42-.64l3.93-1.58c3.33-1.34,7.9-3.21,12.9-5.41s9.49-4.28,12.72-5.82l3.83-1.82A9.69,9.69,0,0,1,390.29,277.71Z" style="fill: rgb(255, 255, 255); transform-origin: 372.16px 285.685px;" id="elb36az3xp4l" class="animable"></path><path d="M566.9,365.33a64.72,64.72,0,0,0-2.72-6.23,67.49,67.49,0,0,0-3.8-5.64,5.9,5.9,0,0,1,1.47,1.39,23.47,23.47,0,0,1,2.78,4,22.47,22.47,0,0,1,1.88,4.5A5.87,5.87,0,0,1,566.9,365.33Z" style="fill: rgb(69, 90, 100); transform-origin: 563.64px 359.395px;" id="eld0woig7wu" class="animable"></path><path d="M566.35,376.21a23.67,23.67,0,0,1-.32-2.59,31.77,31.77,0,0,0-1.37-6.09,32.29,32.29,0,0,0-2.58-5.68,23.22,23.22,0,0,1-1.32-2.25,9,9,0,0,1,1.63,2.06,24.74,24.74,0,0,1,2.76,5.71,25.06,25.06,0,0,1,1.25,6.21A9.07,9.07,0,0,1,566.35,376.21Z" style="fill: rgb(69, 90, 100); transform-origin: 563.616px 367.905px;" id="eln7oup1ffnyn" class="animable"></path><path d="M490.86,398.6a8.4,8.4,0,0,1-1.57-1.91,28.38,28.38,0,0,1-4.51-11,9.05,9.05,0,0,1-.23-2.47,62.69,62.69,0,0,0,2.38,8A61.57,61.57,0,0,0,490.86,398.6Z" style="fill: rgb(69, 90, 100); transform-origin: 487.7px 390.91px;" id="el0h8mlg27cp3g" class="animable"></path><path d="M492.39,406.79s-.26-.17-.67-.55-1-.94-1.64-1.67a39.5,39.5,0,0,1-4.6-6.23,39.91,39.91,0,0,1-3.31-7c-.32-.93-.56-1.7-.69-2.24a2.46,2.46,0,0,1-.16-.85c.08,0,.46,1.14,1.2,3a50.52,50.52,0,0,0,3.4,6.87,51.35,51.35,0,0,0,4.44,6.26A30.61,30.61,0,0,1,492.39,406.79Z" style="fill: rgb(69, 90, 100); transform-origin: 486.855px 397.52px;" id="elft2azfotmzv" class="animable"></path><path d="M109.07,404.31a8.61,8.61,0,0,1-1.59-1.51,42.35,42.35,0,0,1-3.3-4.09,40.91,40.91,0,0,1-2.79-4.47,7.74,7.74,0,0,1-.9-2c.14-.08,1.74,2.83,4.11,6.15S109.18,404.2,109.07,404.31Z" style="fill: rgb(69, 90, 100); transform-origin: 104.782px 398.274px;" id="elf2m86evef4c" class="animable"></path><path d="M110.48,410a24.75,24.75,0,0,1-4.63-4,24.64,24.64,0,0,1-3.9-4.75c.12-.09,1.92,2,4.27,4.38S110.58,409.88,110.48,410Z" style="fill: rgb(69, 90, 100); transform-origin: 106.217px 405.624px;" id="el7mgv17q2t6q" class="animable"></path><path d="M179,372.57c-.15,0-.51-2.58-1.64-5.59s-2.55-5.21-2.41-5.3a18.72,18.72,0,0,1,4,10.89Z" style="fill: rgb(69, 90, 100); transform-origin: 176.97px 367.125px;" id="el5o0hpcodhvy" class="animable"></path><path d="M181.51,373.52a47.74,47.74,0,0,0-2-7.31,48.79,48.79,0,0,0-3.63-6.67,7.44,7.44,0,0,1,1.48,1.7A23.43,23.43,0,0,1,180,366a22.81,22.81,0,0,1,1.43,5.26A7,7,0,0,1,181.51,373.52Z" style="fill: rgb(69, 90, 100); transform-origin: 178.723px 366.53px;" id="elqde4olzbd4" class="animable"></path><path d="M100.39,416.48a6.48,6.48,0,0,1-1.56-1.29,31.37,31.37,0,0,1-3.23-3.65,32.5,32.5,0,0,1-2.65-4.1,6.74,6.74,0,0,1-.82-1.85c.14-.07,1.6,2.63,3.88,5.63S100.5,416.37,100.39,416.48Z" style="fill: rgb(69, 90, 100); transform-origin: 96.262px 411.034px;" id="elvtfy7r3b9kl" class="animable"></path><path d="M103,422.54a3.21,3.21,0,0,1-.82-.38c-.51-.26-1.22-.69-2.08-1.25A37.14,37.14,0,0,1,89,409.42c-.53-.88-.94-1.61-1.18-2.13a2.88,2.88,0,0,1-.35-.83c.08,0,.7,1.07,1.84,2.76a45.15,45.15,0,0,0,11,11.39C102,421.8,103.07,422.46,103,422.54Z" style="fill: rgb(69, 90, 100); transform-origin: 95.2366px 414.5px;" id="el11c6nhu8khd8" class="animable"></path><path d="M700.7,343.58c0,.14-14.07.26-31.42.26s-31.42-.12-31.42-.26,14.07-.26,31.42-.26S700.7,343.43,700.7,343.58Z" style="fill: rgb(38, 50, 56); transform-origin: 669.28px 343.58px;" id="elyjifou1x2vr" class="animable"></path><path d="M701.17,338.2c0,.15-10,.26-22.31.26s-22.31-.11-22.31-.26,10-.26,22.31-.26S701.17,338.06,701.17,338.2Z" style="fill: rgb(38, 50, 56); transform-origin: 678.86px 338.2px;" id="elhp0q9g266c6" class="animable"></path></g><g id="freepik--Speedometer--inject-51" class="animable animator-active" style="transform-origin: 560.32px 192.62px;"><circle cx="560.32" cy="192.62" r="66.57" style="fill: rgb(250, 250, 250); transform-origin: 560.32px 192.62px;" id="el779jbk8ubbu" class="animable"></circle><path d="M560.32,260.19a67.57,67.57,0,1,1,67.57-67.57A67.64,67.64,0,0,1,560.32,260.19Zm0-133.13a65.57,65.57,0,1,0,65.57,65.56A65.63,65.63,0,0,0,560.32,127.06Z" style="fill: rgb(38, 50, 56); transform-origin: 560.32px 192.62px;" id="elk5nnv5bkvr" class="animable"></path><path d="M561,146.4a38.37,38.37,0,0,1-.26-6.37,38.45,38.45,0,0,1,.26-6.38,39.8,39.8,0,0,1,.26,6.38A39.72,39.72,0,0,1,561,146.4Z" style="fill: rgb(38, 50, 56); transform-origin: 560.998px 140.025px;" id="el00x8ao4cn9ba" class="animable"></path><path d="M526.61,159a32.24,32.24,0,0,1-4.23-4,32.19,32.19,0,0,1-3.85-4.36,33.32,33.32,0,0,1,4.22,4A32.73,32.73,0,0,1,526.61,159Z" style="fill: rgb(38, 50, 56); transform-origin: 522.57px 154.82px;" id="eli75k9ol1dw" class="animable"></path><path d="M517.79,194a123.21,123.21,0,0,1-16,0,123.21,123.21,0,0,1,16,0Z" style="fill: rgb(38, 50, 56); transform-origin: 509.79px 194px;" id="eldf1fna1q5br" class="animable"></path><path d="M526.45,226.68a30.57,30.57,0,0,1-3.39,4,21.8,21.8,0,0,1-3.77,3.62,31.57,31.57,0,0,1,3.39-4A22.65,22.65,0,0,1,526.45,226.68Z" style="fill: rgb(38, 50, 56); transform-origin: 522.87px 230.49px;" id="el7clwkh2wddk" class="animable"></path><path d="M602,233.59A59.12,59.12,0,0,0,619,197.22c2.08-24.81-8.74-37.84-16.75-46.5l-7,6.65c7.12,7.6,18.06,22.69,15.08,40.58-2.4,14.41-9.86,25.25-14.38,29.93Z" style="fill: rgb(0, 255, 136); transform-origin: 607.255px 192.155px;" id="ela3qzxsmn12c" class="animable"></path><path d="M558.68,201.15a7.79,7.79,0,1,1,9.15-6.14A7.8,7.8,0,0,1,558.68,201.15Z" style="fill: rgb(38, 50, 56); transform-origin: 560.186px 193.506px;" id="eldlk07nddvb" class="animable"></path><polygon points="587.93 211.9 542.75 177.29 538.45 183.84 587.93 211.9" style="fill: rgb(38, 50, 56); transform-origin: 563.19px 194.595px;" id="elob0my3ty2j" class="animable"></polygon><path d="M619.18,192.07s0-.33,0-1,0-1.57-.13-2.79a60,60,0,0,0-1.7-10.62,58.88,58.88,0,0,0-21.45-32.32,57.62,57.62,0,0,0-11.21-6.69,56.85,56.85,0,0,0-13.49-4.25,59.64,59.64,0,0,0-23,.27,62.6,62.6,0,0,0-7.84,2.24,58.65,58.65,0,0,0,0,110.23,61,61,0,0,0,7.84,2.24,59.64,59.64,0,0,0,23,.27,56.7,56.7,0,0,0,13.49-4.25,57.7,57.7,0,0,0,11.22-6.69A58.9,58.9,0,0,0,619,195.82c.11-1.23.09-2.17.13-2.8s0-1,0-1,0,1.29-.08,3.75a57.63,57.63,0,0,1-1.6,10.66A59,59,0,0,1,611,222.22a59.63,59.63,0,0,1-15,16.82,58.07,58.07,0,0,1-11.27,6.77,57.35,57.35,0,0,1-13.58,4.31,60,60,0,0,1-23.16-.24,63.46,63.46,0,0,1-7.9-2.24,59.11,59.11,0,0,1,0-111.14,61.38,61.38,0,0,1,7.9-2.25,60,60,0,0,1,23.16-.24,58.77,58.77,0,0,1,24.85,11.08A59.54,59.54,0,0,1,611,161.9a58.79,58.79,0,0,1,6.47,15.75,57.63,57.63,0,0,1,1.6,10.66C619.22,190.77,619.18,192.07,619.18,192.07Z" style="fill: rgb(38, 50, 56); transform-origin: 560.157px 192.065px;" id="elykn5rx8121" class="animable"></path><path d="M619.21,191.69a76.21,76.21,0,0,1-12.58,0,76.21,76.21,0,0,1,12.58,0Z" style="fill: rgb(38, 50, 56); transform-origin: 612.92px 191.69px;" id="elmb7ou3lgio" class="animable"></path><path d="M602,233.59a41.67,41.67,0,0,1-5-4.41,40.55,40.55,0,0,1-4.59-4.78,86.35,86.35,0,0,1,9.55,9.19Z" style="fill: rgb(38, 50, 56); transform-origin: 597.205px 228.995px;" id="elo0nvgcgjoae" class="animable"></path><path d="M602.21,150.72c.17.15-1.77,2.13-4.27,4.41a35.11,35.11,0,0,1-4.72,3.92,38.18,38.18,0,0,1,4.37-4.31c1.25-1.14,2.4-2.15,3.23-2.88A14.58,14.58,0,0,1,602.21,150.72Z" style="fill: rgb(38, 50, 56); transform-origin: 597.72px 154.885px;" id="el98poffebdh" class="animable"></path><path d="M591.69,214.16a6.72,6.72,0,0,1-3.62,2.21,6.64,6.64,0,0,1-4.24.08,26.62,26.62,0,0,0,4.09-.58A27.33,27.33,0,0,0,591.69,214.16Z" style="fill: rgb(38, 50, 56); transform-origin: 587.76px 215.459px;" id="elko80y1x8t3" class="animable"></path><path d="M593.73,216a4.62,4.62,0,0,1-1.45,1.25,11.77,11.77,0,0,1-8.91,1.56,4.66,4.66,0,0,1-1.79-.67A14.66,14.66,0,0,0,593.73,216Z" style="fill: rgb(38, 50, 56); transform-origin: 587.655px 217.548px;" id="elskdyfyrbgjs" class="animable"></path><path d="M545.72,172.54a19.51,19.51,0,0,0-4.11-.36,19.06,19.06,0,0,0-4,1,7.4,7.4,0,0,1,8.11-.67Z" style="fill: rgb(38, 50, 56); transform-origin: 541.665px 172.392px;" id="el29fqp1gnyss" class="animable"></path><path d="M546.62,170.79A18.58,18.58,0,0,0,535,171.9a12.44,12.44,0,0,1,11.61-1.11Z" style="fill: rgb(38, 50, 56); transform-origin: 540.81px 170.872px;" id="elndv49wllksc" class="animable"></path></g><defs>     <filter id="active" height="200%">         <feMorphology in="SourceAlpha" result="DILATED" operator="dilate" radius="2"></feMorphology>                <feFlood flood-color="#32DFEC" flood-opacity="1" result="PINK"></feFlood>        <feComposite in="PINK" in2="DILATED" operator="in" result="OUTLINE"></feComposite>        <feMerge>            <feMergeNode in="OUTLINE"></feMergeNode>            <feMergeNode in="SourceGraphic"></feMergeNode>        </feMerge>    </filter>    <filter id="hover" height="200%">        <feMorphology in="SourceAlpha" result="DILATED" operator="dilate" radius="2"></feMorphology>                <feFlood flood-color="#ff0000" flood-opacity="0.5" result="PINK"></feFlood>        <feComposite in="PINK" in2="DILATED" operator="in" result="OUTLINE"></feComposite>        <feMerge>            <feMergeNode in="OUTLINE"></feMergeNode>            <feMergeNode in="SourceGraphic"></feMergeNode>        </feMerge>            <feColorMatrix type="matrix" values="0   0   0   0   0                0   1   0   0   0                0   0   0   0   0                0   0   0   1   0 "></feColorMatrix>    </filter></defs></svg>